
<svg version="1.1" id="Layer_1" xmlns="http://www.w3.org/2000/svg" xmlns:xlink="http://www.w3.org/1999/xlink" x="0px" y="0px"
	 width="100%" viewBox="0 0 94 96" enable-background="new 0 0 94 96" xml:space="preserve">
<path fill="white" opacity="1.000000" stroke="none" 
	d="
M1.000000,67.467606 
	C1.472072,66.991882 2.176433,67.184914 2.382732,66.946671 
	C10.581800,57.478027 18.735687,47.970257 27.727291,37.498764 
	C29.617268,40.301800 30.893223,42.194172 32.363297,44.374447 
	C26.224886,50.438148 19.369709,57.010040 12.745157,63.806713 
	C5.239572,71.507309 5.799702,79.536102 11.806978,85.996651 
	C16.926085,91.502014 27.163973,92.153854 33.772106,84.861053 
	C39.805820,78.202194 46.434864,72.082664 52.807663,65.731590 
	C53.040047,65.500000 53.337330,65.333519 54.090256,64.778557 
	C55.378368,66.010567 56.742008,67.314812 59.045055,69.517555 
	C48.938576,78.696175 39.131104,87.603233 29.661816,96.755150 
	C24.977907,97.000000 19.955816,97.000000 14.805017,96.757004 
	C10.453835,92.238556 6.236617,87.957840 1.981149,83.715500 
	C1.864539,83.599243 1.336296,83.895897 1.000001,84.000000 
	C1.000000,78.645073 1.000000,73.290138 1.000000,67.467606 
z"/>
<path fill="#888888" opacity="1.000000" stroke="none" 
	d="
M95.000000,30.533138 
	C94.407127,31.124567 93.572098,31.039696 93.256744,31.404295 
	C85.055405,40.886288 76.908051,50.414974 68.381302,60.367596 
	C66.031219,58.311619 64.593971,57.054234 62.520878,55.240578 
	C69.892654,47.778370 77.111488,40.518162 84.273933,33.202747 
	C88.491646,28.894964 89.610573,21.617670 87.012810,16.166187 
	C84.675903,11.262107 78.335526,7.153622 72.774902,8.198115 
	C69.134705,8.881882 65.255516,10.764217 62.507732,13.244546 
	C55.496353,19.573456 49.059067,26.538366 42.189083,33.453159 
	C40.532265,31.890629 39.241646,30.673460 36.849087,28.417063 
	C47.271168,19.315224 57.419621,10.452348 67.284035,1.294736 
	C71.356903,1.000000 75.713799,1.000000 80.198738,1.247506 
	C86.012672,4.973984 91.242470,8.903038 94.019333,15.282162 
	C94.036987,15.322719 94.659782,15.099856 95.000000,15.000001 
	C95.000000,20.022093 95.000000,25.044184 95.000000,30.533138 
z"/>
<path fill="#000000" opacity="1.000000" stroke="none" 
	d="
M95.000000,14.525873 
	C94.659782,15.099856 94.036987,15.322719 94.019333,15.282162 
	C91.242470,8.903038 86.012672,4.973984 80.663391,1.247506 
	C85.590599,1.000000 90.181198,1.000000 95.000000,1.000000 
	C95.000000,5.348905 95.000000,9.700325 95.000000,14.525873 
z"/>
<path fill="#000000" opacity="1.000000" stroke="none" 
	d="
M1.000001,84.476669 
	C1.336296,83.895897 1.864539,83.599243 1.981149,83.715500 
	C6.236617,87.957840 10.453835,92.238556 14.338156,96.757004 
	C9.743702,97.000000 5.487404,97.000000 1.000000,97.000000 
	C1.000000,92.986252 1.000000,88.969788 1.000001,84.476669 
z"/>
<path fill="white" opacity="1.000000" stroke="none" 
	d="
M10.934508,31.948689 
	C8.219950,32.717091 5.910354,33.435902 2.706959,34.432892 
	C3.220052,30.336838 3.639356,26.989510 4.112031,23.216108 
	C9.933516,24.882282 15.474850,26.468275 22.126564,28.372070 
	C17.832790,29.775995 14.586131,30.837547 10.934508,31.948689 
z"/>
<path fill="white" opacity="1.000000" stroke="none" 
	d="
M87.592651,64.724922 
	C89.487167,64.057289 91.014816,63.575687 92.798477,63.013371 
	C92.798477,66.612648 92.798477,69.895004 92.798477,73.712471 
	C86.989899,72.146065 81.322823,70.617813 75.655739,69.089561 
	C75.660797,68.763771 75.665855,68.437973 75.670906,68.112183 
	C79.522530,67.045105 83.374153,65.978027 87.592651,64.724922 
z"/>
<path fill="white" opacity="1.000000" stroke="none" 
	d="
M29.439316,18.067364 
	C29.071590,18.810610 28.940996,19.283030 28.460283,21.021982 
	C27.476393,15.150014 26.690144,10.457587 25.867121,5.545690 
	C32.251369,8.606508 32.251369,8.606508 29.439316,18.067364 
z"/>
<path fill="white" opacity="1.000000" stroke="none" 
	d="
M69.361984,90.718735 
	C67.503136,89.930725 66.014534,89.001457 64.328110,87.948700 
	C65.389977,84.273529 66.426918,80.684624 67.463852,77.095726 
	C67.908783,77.099922 68.353706,77.104118 68.798630,77.108315 
	C69.109833,81.598038 69.421028,86.087761 69.361984,90.718735 
z"/>
<path fill="white" opacity="1.000000" stroke="none" 
	d="
M83.707047,87.558044 
	C81.197205,84.808151 78.990845,81.900490 76.784492,78.992836 
	C77.076157,78.637451 77.367828,78.282059 77.659492,77.926674 
	C80.634644,79.939087 83.609795,81.951500 86.954338,84.213783 
	C85.865204,85.392693 84.937859,86.396484 83.707047,87.558044 
z"/>
<path fill="white" opacity="1.000000" stroke="none" 
	d="
M16.911995,17.461166 
	C14.345605,15.677256 12.072038,14.168515 9.415588,12.405693 
	C10.836914,10.920029 11.802415,9.910824 13.652593,7.976895 
	C15.487092,11.941562 16.995941,15.202438 18.504789,18.463316 
	C18.071466,18.220987 17.638144,17.978661 16.911995,17.461166 
z"/>
<path fill="white" opacity="1.000000" stroke="none" 
	d="
M20.248249,18.974752 
	C20.057096,19.290052 19.625971,19.347002 19.194843,19.403950 
	C19.465986,19.174767 19.737129,18.945583 20.248249,18.974752 
z"/>
</svg>
